<svg width="4" height="7" viewBox="0 0 4 7" fill="none" xmlns="http://www.w3.org/2000/svg">
<mask id="mask0_1_6" style="mask-type:alpha" maskUnits="userSpaceOnUse" x="-7" y="-5" width="18" height="17">
<rect x="-6.08271" y="11.7246" width="16.4418" height="16.4418" transform="rotate(-90 -6.08271 11.7246)" fill="#D9D9D9"/>
</mask>
<g mask="url(#mask0_1_6)">
<path d="M3.76263 3.50311C3.76263 3.57689 3.75056 3.64496 3.72641 3.70731C3.70225 3.76968 3.66031 3.83072 3.6006 3.89043L0.594164 6.89686C0.530053 6.96098 0.451446 6.99523 0.358345 6.99963C0.265243 7.00402 0.182241 6.96977 0.109337 6.89686C0.0364455 6.82396 -1.1227e-08 6.74316 -1.51044e-08 6.65445C-1.89819e-08 6.56574 0.0364454 6.48494 0.109337 6.41204L3.01827 3.50311L0.109337 0.594182C0.0452256 0.53007 0.0109718 0.451463 0.00657595 0.358362C0.00219147 0.26526 0.0364452 0.182258 0.109337 0.109355C0.18224 0.0364513 0.263045 -1.14981e-08 0.35175 -1.53755e-08C0.440468 -1.92535e-08 0.521272 0.0364513 0.594164 0.109355L3.6006 3.11579C3.66031 3.1755 3.70225 3.23654 3.72641 3.29891C3.75056 3.36126 3.76263 3.42933 3.76263 3.50311Z" fill="#484644"/>
</g>
</svg>
