<svg width="17" height="17" viewBox="0 0 17 17" fill="none" xmlns="http://www.w3.org/2000/svg">
<mask id="mask0_1_162" style="mask-type:alpha" maskUnits="userSpaceOnUse" x="-4" y="-4" width="25" height="25">
<rect x="-3.95068" y="-3.91079" width="24.9014" height="24.9014" fill="#D9D9D9"/>
</mask>
<g mask="url(#mask0_1_162)">
<path d="M16.2657 17L9.76901 10.5033C9.25023 10.9449 8.65364 11.2868 7.97923 11.5289C7.30481 11.771 6.62707 11.892 5.946 11.892C4.28418 11.892 2.87773 11.3168 1.72665 10.1663C0.57555 9.01586 0 7.61017 0 5.94925C0 4.28833 0.57523 2.88155 1.72569 1.72893C2.87615 0.576311 4.28184 0 5.94276 0C7.6037 0 9.01047 0.575541 10.1631 1.72662C11.3157 2.87771 11.892 4.28417 11.892 5.946C11.892 6.66697 11.7643 7.36466 11.5089 8.03907C11.2535 8.71348 10.9183 9.29013 10.5033 9.76901L17 16.2657L16.2657 17ZM5.946 10.8545C7.32277 10.8545 8.48503 10.3806 9.43279 9.43279C10.3806 8.48502 10.8544 7.32276 10.8544 5.946C10.8544 4.56925 10.3806 3.40699 9.43279 2.45922C8.48503 1.51144 7.32277 1.03756 5.946 1.03756C4.56925 1.03756 3.40699 1.51144 2.45922 2.45922C1.51146 3.40699 1.03758 4.56925 1.03758 5.946C1.03758 7.32276 1.51146 8.48502 2.45922 9.43279C3.40699 10.3806 4.56925 10.8545 5.946 10.8545Z" fill="#484644"/>
</g>
</svg>
